<svg height="65px" viewBox="0 0 64 64" width="65px" xmlns="http://www.w3.org/2000/svg"><g id="flat"><path d="m35 39h16v16h-16z" fill="#5f79ba" transform="matrix(-1 0 0 -1 86 94)"/><path d="m45 55h4v6h-4z" fill="#f9bb4b" transform="matrix(-1 0 0 -1 94 116)"/><path d="m37 55h4v6h-4z" fill="#f9bb4b" transform="matrix(-1 0 0 -1 78 116)"/><path d="m19 31v22a4 4 0 0 0 4 4 4 4 0 0 0 4-4v-41a9 9 0 0 1 9-9 9 9 0 0 1 9 9v1h-4v-1a5 5 0 0 0 -5-5 5 5 0 0 0 -5 5v41a8 8 0 0 1 -8 8 8 8 0 0 1 -8-8v-22z" fill="#50b4f8"/><path d="m15 21h4a2 2 0 0 1 2 2v8a0 0 0 0 1 0 0h-8a0 0 0 0 1 0 0v-8a2 2 0 0 1 2-2z" fill="#5f79ba" transform="matrix(-1 0 0 -1 34 52)"/><path d="m15 31h4v6h-4z" fill="#87cee9" transform="matrix(-1 0 0 -1 34 68)"/><path d="m15 17h4v4h-4z" fill="#f9bb4b" transform="matrix(-1 0 0 -1 34 38)"/><path d="m38 19h10v10h-10z" fill="#5f79ba"/><path d="m40 29h6v6h-6z" fill="#f9bb4b"/><path d="m41 13h4v6h-4z" fill="#87cee9" transform="matrix(-1 0 0 -1 86 32)"/><path d="m38 42h10v2h-10z" fill="#f4f4e6"/></g></svg>